REM Ripping Tool: trurip

FILE "Jantei Monogatari 2 - Uchuu Tantei Divan Kanketsu-hen (1992)(Atlus)(JP).img" BINARY
  TRACK 01 AUDIO
    INDEX 01 00:00:00
  TRACK 02 MODE1/2352
    INDEX 00 00:44:51
    INDEX 01 00:47:51
  TRACK 03 AUDIO
    INDEX 00 08:12:55
    INDEX 01 08:14:55
  TRACK 04 AUDIO
    INDEX 01 12:12:45
  TRACK 05 MODE1/2352
    INDEX 00 14:26:06
    INDEX 01 14:29:06

REM DISC HASHES
REM CRC32 : 27d332c0
REM MD5   : f8a0851a1567757f7e74f9f6e5201889
REM SHA1  : c53264bb07b7d214c6d340c8ef3e8583cf7b9a76

REM Gap Append Method: Prev [crc32]
REM Trk 01: 4c53f92b
REM Trk 02: d6a94a37
REM Trk 03: 9b110753
REM Trk 04: 772f4830
REM Trk 05: daf19b22

REM Gap Append Method: Prev [md5]
REM Trk 01: 8d7ec5ebfafde98da8ba26f5371ff557
REM Trk 02: 8aea34964b8ecd31d1a36f31762bd6ce
REM Trk 03: b94c2aa24657b8d4c2574a74bea4a55f
REM Trk 04: db9b325f6e4d28588994c55863b9e5c7
REM Trk 05: 3b721b448ffdd7537b4fc9ddfd7b544e

REM Gap Append Method: Prev [sha1]
REM Trk 01: 74ab8a879f900097f29afc97d6973f450f1e2541
REM Trk 02: b82f66f3882e82dc147ab86ecb8e889e7eee624d
REM Trk 03: 7ca19bd3f07ccd12c0e5a727a455d0f43b1e7120
REM Trk 04: 85a03e68835de96fc2a12df1d61779ff438e757a
REM Trk 05: 78d4406636a0805347fe52ba63937c350fc3100c

REM Gap Append Method: None [crc32]
REM Trk 01: 2cab2362
REM Trk 02: 1e16342c
REM Trk 03: 9b110753
REM Trk 04: da42d40b
REM Trk 05: daf19b22
REM Gap 02: 4dcee60a
REM Gap 03: 7abe247f
REM Gap 05: 43974c3e

REM Gap Append Method: None [md5]
REM Trk 01: bf1cd486793a0db7e16a98861e3d1290
REM Trk 02: 2a24114e7c4bf8f79e31ed977e4ead6f
REM Trk 03: b94c2aa24657b8d4c2574a74bea4a55f
REM Trk 04: 1387e669d05dfe8c5dfbe210da4c457f
REM Trk 05: 3b721b448ffdd7537b4fc9ddfd7b544e
REM Gap 02: 6a9ee9c3d8835b96aa8f9b6a6fd73f2a
REM Gap 03: 9df204fbc98bb8965081cb30a89715fc
REM Gap 05: 5103df147066dccf62f74755ff6ee383

REM Gap Append Method: None [sha1]
REM Trk 01: c52a41b86a991ff9f4145531f6b174af074d856e
REM Trk 02: 697ec8f5e8de0cffa858cf02ec5766175188bedc
REM Trk 03: 7ca19bd3f07ccd12c0e5a727a455d0f43b1e7120
REM Trk 04: 7caaf93d16d507d8eca511e6eb334319cc9f43bf
REM Trk 05: 78d4406636a0805347fe52ba63937c350fc3100c
REM Gap 02: ba90885a7076b5b6b026fdd787835147d9cfb390
REM Gap 03: cbe29e0bd725ef1194f8c47619dd42078e841de2
REM Gap 05: 44df32a6da6f293ceac5416d4cdcee31f5db0d24

REM Gap Append Method: Next [crc32]
REM Trk 01: 2cab2362
REM Trk 02: 8ced58af
REM Trk 03: a0316d30
REM Trk 04: da42d40b
REM Trk 05: 23085716

REM Gap Append Method: Next [md5]
REM Trk 01: bf1cd486793a0db7e16a98861e3d1290
REM Trk 02: 80ad02d66cb6fbdec08358ccd553479d
REM Trk 03: 8414c7299781ec8859562d2263e6e3ff
REM Trk 04: 1387e669d05dfe8c5dfbe210da4c457f
REM Trk 05: 9869241577e79be85d325d9eab495545

REM Gap Append Method: Next [sha1]
REM Trk 01: c52a41b86a991ff9f4145531f6b174af074d856e
REM Trk 02: 5e441f8d2a2c7169a15c944776bd1a28b5a73274
REM Trk 03: 68bbdf29257a0cd5a4a46bca7a37de1132db7f29
REM Trk 04: 7caaf93d16d507d8eca511e6eb334319cc9f43bf
REM Trk 05: 04d1852d9ef71ee922ba0346abc2e213289c4c67

